<?xml version="1.0" encoding="utf-8"?>
<!-- Svg Vector Icons : http://www.onlinewebfonts.com/icon -->
<!DOCTYPE svg PUBLIC "-//W3C//DTD SVG 1.1//EN" "http://www.w3.org/Graphics/SVG/1.1/DTD/svg11.dtd">
<svg version="1.1" xmlns="http://www.w3.org/2000/svg" xmlns:xlink="http://www.w3.org/1999/xlink" x="0px" y="0px" viewBox="0 0 1000 1000" enable-background="new 0 0 1000 1000" xml:space="preserve">
<metadata> Svg Vector Icons : http://www.onlinewebfonts.com/icon </metadata>
<g><path d="M665.7,438.8L665.7,438.8c-2.6-1.1-5.2-2.2-7.7-3.7c-15.3-8.8-26.7-23.8-30.4-42l-40.5-257.5l-0.4-12.7c0-15.5,9-22.3,21.9-28.4l0,0c1.5-0.7,3.1-1.3,4.6-2c15.8-7.4,26.5-17.1,26.5-35.7c0-44-14.2-46.8-39.8-46.8H400.1c-25.6,0-39.8,2.6-39.8,46.8c0,18.6,10.7,28.2,26.5,35.7c1.5,0.7,3.1,1.1,4.6,2l0,0c12.9,6.3,21.9,13.1,21.9,28.4l-0.4,12.7L372.4,393c-3.7,18.2-15.1,33.2-30.4,42c-2.4,1.5-5,2.6-7.7,3.7l0,0c-43.1,22.3-79.2,67.4-79.2,119.7c0,34.8,7.7,46.6,33.2,46.6h176.5l26.3,385h17.5l26.3-385h176.7c25.6,0,33.3-10.3,33.3-46.6C744.9,506.1,708.8,461.1,665.7,438.8z"/></g>
</svg>